<mxfile host="app.diagrams.net" agent="Mozilla/5.0 (X11; Linux x86_64; rv:132.0) Gecko/20100101 Firefox/132.0" version="24.8.6">
  <diagram name="Page-1" id="yo8UvYgPWMpTNaNerc6H">
    <mxGraphModel dx="1434" dy="778" grid="1" gridSize="10" guides="1" tooltips="1" connect="1" arrows="1" fold="1" page="1" pageScale="1" pageWidth="2000" pageHeight="1200" math="0" shadow="0">
      <root>
        <mxCell id="0" />
        <mxCell id="1" parent="0" />
        <mxCell id="9A3q7rVzD3GhdSEIUEHc-9" style="edgeStyle=orthogonalEdgeStyle;rounded=0;orthogonalLoop=1;jettySize=auto;html=1;exitX=0.5;exitY=1;exitDx=0;exitDy=0;entryX=0.5;entryY=0;entryDx=0;entryDy=0;" edge="1" parent="1" source="9A3q7rVzD3GhdSEIUEHc-1" target="9A3q7rVzD3GhdSEIUEHc-2">
          <mxGeometry relative="1" as="geometry" />
        </mxCell>
        <mxCell id="9A3q7rVzD3GhdSEIUEHc-1" value="Start" style="ellipse;whiteSpace=wrap;html=1;" vertex="1" parent="1">
          <mxGeometry width="120" height="80" as="geometry" />
        </mxCell>
        <mxCell id="9A3q7rVzD3GhdSEIUEHc-10" style="edgeStyle=orthogonalEdgeStyle;rounded=0;orthogonalLoop=1;jettySize=auto;html=1;exitX=0.5;exitY=1;exitDx=0;exitDy=0;entryX=0.5;entryY=0;entryDx=0;entryDy=0;" edge="1" parent="1" source="9A3q7rVzD3GhdSEIUEHc-2" target="9A3q7rVzD3GhdSEIUEHc-3">
          <mxGeometry relative="1" as="geometry" />
        </mxCell>
        <mxCell id="9A3q7rVzD3GhdSEIUEHc-2" value="n" style="rounded=0;whiteSpace=wrap;html=1;" vertex="1" parent="1">
          <mxGeometry y="120" width="120" height="60" as="geometry" />
        </mxCell>
        <mxCell id="9A3q7rVzD3GhdSEIUEHc-11" style="edgeStyle=orthogonalEdgeStyle;rounded=0;orthogonalLoop=1;jettySize=auto;html=1;exitX=0.5;exitY=1;exitDx=0;exitDy=0;entryX=0.5;entryY=0;entryDx=0;entryDy=0;" edge="1" parent="1" source="9A3q7rVzD3GhdSEIUEHc-3" target="9A3q7rVzD3GhdSEIUEHc-4">
          <mxGeometry relative="1" as="geometry" />
        </mxCell>
        <mxCell id="9A3q7rVzD3GhdSEIUEHc-3" value="input n" style="shape=parallelogram;perimeter=parallelogramPerimeter;whiteSpace=wrap;html=1;fixedSize=1;" vertex="1" parent="1">
          <mxGeometry y="220" width="120" height="60" as="geometry" />
        </mxCell>
        <mxCell id="9A3q7rVzD3GhdSEIUEHc-12" style="edgeStyle=orthogonalEdgeStyle;rounded=0;orthogonalLoop=1;jettySize=auto;html=1;exitX=0.5;exitY=1;exitDx=0;exitDy=0;entryX=0.5;entryY=0;entryDx=0;entryDy=0;" edge="1" parent="1" source="9A3q7rVzD3GhdSEIUEHc-4" target="9A3q7rVzD3GhdSEIUEHc-5">
          <mxGeometry relative="1" as="geometry" />
        </mxCell>
        <mxCell id="9A3q7rVzD3GhdSEIUEHc-4" value="arr of size n" style="rounded=0;whiteSpace=wrap;html=1;" vertex="1" parent="1">
          <mxGeometry y="320" width="120" height="60" as="geometry" />
        </mxCell>
        <mxCell id="9A3q7rVzD3GhdSEIUEHc-13" style="edgeStyle=orthogonalEdgeStyle;rounded=0;orthogonalLoop=1;jettySize=auto;html=1;exitX=0.5;exitY=1;exitDx=0;exitDy=0;entryX=0.5;entryY=0;entryDx=0;entryDy=0;" edge="1" parent="1" source="9A3q7rVzD3GhdSEIUEHc-5" target="9A3q7rVzD3GhdSEIUEHc-6">
          <mxGeometry relative="1" as="geometry" />
        </mxCell>
        <mxCell id="9A3q7rVzD3GhdSEIUEHc-5" value="input arr" style="shape=parallelogram;perimeter=parallelogramPerimeter;whiteSpace=wrap;html=1;fixedSize=1;" vertex="1" parent="1">
          <mxGeometry y="420" width="120" height="60" as="geometry" />
        </mxCell>
        <mxCell id="9A3q7rVzD3GhdSEIUEHc-14" style="edgeStyle=orthogonalEdgeStyle;rounded=0;orthogonalLoop=1;jettySize=auto;html=1;exitX=0.5;exitY=1;exitDx=0;exitDy=0;entryX=0.5;entryY=0;entryDx=0;entryDy=0;" edge="1" parent="1" source="9A3q7rVzD3GhdSEIUEHc-6" target="9A3q7rVzD3GhdSEIUEHc-7">
          <mxGeometry relative="1" as="geometry" />
        </mxCell>
        <mxCell id="9A3q7rVzD3GhdSEIUEHc-6" value="lis(arr, n)" style="shape=process;whiteSpace=wrap;html=1;backgroundOutline=1;" vertex="1" parent="1">
          <mxGeometry y="520" width="120" height="60" as="geometry" />
        </mxCell>
        <mxCell id="9A3q7rVzD3GhdSEIUEHc-15" style="edgeStyle=orthogonalEdgeStyle;rounded=0;orthogonalLoop=1;jettySize=auto;html=1;exitX=0.5;exitY=1;exitDx=0;exitDy=0;entryX=0.5;entryY=0;entryDx=0;entryDy=0;" edge="1" parent="1" source="9A3q7rVzD3GhdSEIUEHc-7" target="9A3q7rVzD3GhdSEIUEHc-8">
          <mxGeometry relative="1" as="geometry" />
        </mxCell>
        <mxCell id="9A3q7rVzD3GhdSEIUEHc-7" value="print lis" style="shape=parallelogram;perimeter=parallelogramPerimeter;whiteSpace=wrap;html=1;fixedSize=1;" vertex="1" parent="1">
          <mxGeometry y="620" width="120" height="60" as="geometry" />
        </mxCell>
        <mxCell id="9A3q7rVzD3GhdSEIUEHc-8" value="End" style="ellipse;whiteSpace=wrap;html=1;" vertex="1" parent="1">
          <mxGeometry y="720" width="120" height="80" as="geometry" />
        </mxCell>
        <mxCell id="9A3q7rVzD3GhdSEIUEHc-48" style="edgeStyle=orthogonalEdgeStyle;rounded=0;orthogonalLoop=1;jettySize=auto;html=1;exitX=0.5;exitY=1;exitDx=0;exitDy=0;entryX=0.5;entryY=0;entryDx=0;entryDy=0;" edge="1" parent="1" source="9A3q7rVzD3GhdSEIUEHc-16" target="9A3q7rVzD3GhdSEIUEHc-17">
          <mxGeometry relative="1" as="geometry" />
        </mxCell>
        <mxCell id="9A3q7rVzD3GhdSEIUEHc-16" value="lis(arr, n)" style="ellipse;whiteSpace=wrap;html=1;" vertex="1" parent="1">
          <mxGeometry x="240" width="120" height="80" as="geometry" />
        </mxCell>
        <mxCell id="9A3q7rVzD3GhdSEIUEHc-47" style="edgeStyle=orthogonalEdgeStyle;rounded=0;orthogonalLoop=1;jettySize=auto;html=1;exitX=0.5;exitY=1;exitDx=0;exitDy=0;entryX=0.5;entryY=0;entryDx=0;entryDy=0;" edge="1" parent="1" source="9A3q7rVzD3GhdSEIUEHc-17" target="9A3q7rVzD3GhdSEIUEHc-18">
          <mxGeometry relative="1" as="geometry" />
        </mxCell>
        <mxCell id="9A3q7rVzD3GhdSEIUEHc-17" value="max = 0" style="rounded=0;whiteSpace=wrap;html=1;" vertex="1" parent="1">
          <mxGeometry x="240" y="120" width="120" height="60" as="geometry" />
        </mxCell>
        <mxCell id="9A3q7rVzD3GhdSEIUEHc-46" style="edgeStyle=orthogonalEdgeStyle;rounded=0;orthogonalLoop=1;jettySize=auto;html=1;exitX=0.5;exitY=1;exitDx=0;exitDy=0;entryX=0.5;entryY=0;entryDx=0;entryDy=0;" edge="1" parent="1" source="9A3q7rVzD3GhdSEIUEHc-18" target="9A3q7rVzD3GhdSEIUEHc-19">
          <mxGeometry relative="1" as="geometry" />
        </mxCell>
        <mxCell id="9A3q7rVzD3GhdSEIUEHc-18" value="&lt;div&gt;lis = array of size n&lt;/div&gt;&lt;div&gt;all set to 1&lt;br&gt;&lt;/div&gt;" style="rounded=0;whiteSpace=wrap;html=1;" vertex="1" parent="1">
          <mxGeometry x="240" y="220" width="120" height="60" as="geometry" />
        </mxCell>
        <mxCell id="9A3q7rVzD3GhdSEIUEHc-45" style="edgeStyle=orthogonalEdgeStyle;rounded=0;orthogonalLoop=1;jettySize=auto;html=1;exitX=0.5;exitY=1;exitDx=0;exitDy=0;entryX=0.5;entryY=0;entryDx=0;entryDy=0;" edge="1" parent="1" source="9A3q7rVzD3GhdSEIUEHc-19" target="9A3q7rVzD3GhdSEIUEHc-20">
          <mxGeometry relative="1" as="geometry" />
        </mxCell>
        <mxCell id="9A3q7rVzD3GhdSEIUEHc-19" value="i = 1" style="rounded=0;whiteSpace=wrap;html=1;" vertex="1" parent="1">
          <mxGeometry x="240" y="320" width="120" height="60" as="geometry" />
        </mxCell>
        <mxCell id="9A3q7rVzD3GhdSEIUEHc-35" value="y" style="edgeStyle=orthogonalEdgeStyle;rounded=0;orthogonalLoop=1;jettySize=auto;html=1;exitX=0.5;exitY=1;exitDx=0;exitDy=0;entryX=0.5;entryY=0;entryDx=0;entryDy=0;" edge="1" parent="1" source="9A3q7rVzD3GhdSEIUEHc-20" target="9A3q7rVzD3GhdSEIUEHc-21">
          <mxGeometry relative="1" as="geometry" />
        </mxCell>
        <mxCell id="9A3q7rVzD3GhdSEIUEHc-41" style="edgeStyle=orthogonalEdgeStyle;rounded=0;orthogonalLoop=1;jettySize=auto;html=1;exitX=1;exitY=0.5;exitDx=0;exitDy=0;entryX=0;entryY=0.5;entryDx=0;entryDy=0;" edge="1" parent="1" source="9A3q7rVzD3GhdSEIUEHc-20" target="9A3q7rVzD3GhdSEIUEHc-37">
          <mxGeometry relative="1" as="geometry">
            <Array as="points">
              <mxPoint x="390" y="440" />
              <mxPoint x="390" y="450" />
            </Array>
          </mxGeometry>
        </mxCell>
        <mxCell id="9A3q7rVzD3GhdSEIUEHc-42" value="n" style="edgeLabel;html=1;align=center;verticalAlign=middle;resizable=0;points=[];" vertex="1" connectable="0" parent="9A3q7rVzD3GhdSEIUEHc-41">
          <mxGeometry x="-0.8061" y="1" relative="1" as="geometry">
            <mxPoint as="offset" />
          </mxGeometry>
        </mxCell>
        <mxCell id="9A3q7rVzD3GhdSEIUEHc-20" value="i &amp;lt; n?" style="rhombus;whiteSpace=wrap;html=1;" vertex="1" parent="1">
          <mxGeometry x="260" y="400" width="80" height="80" as="geometry" />
        </mxCell>
        <mxCell id="9A3q7rVzD3GhdSEIUEHc-34" style="edgeStyle=orthogonalEdgeStyle;rounded=0;orthogonalLoop=1;jettySize=auto;html=1;exitX=0.5;exitY=1;exitDx=0;exitDy=0;entryX=0.5;entryY=0;entryDx=0;entryDy=0;" edge="1" parent="1" source="9A3q7rVzD3GhdSEIUEHc-21" target="9A3q7rVzD3GhdSEIUEHc-22">
          <mxGeometry relative="1" as="geometry" />
        </mxCell>
        <mxCell id="9A3q7rVzD3GhdSEIUEHc-21" value="j = 0" style="rounded=0;whiteSpace=wrap;html=1;" vertex="1" parent="1">
          <mxGeometry x="240" y="520" width="120" height="60" as="geometry" />
        </mxCell>
        <mxCell id="9A3q7rVzD3GhdSEIUEHc-30" value="y" style="edgeStyle=orthogonalEdgeStyle;rounded=0;orthogonalLoop=1;jettySize=auto;html=1;exitX=0.5;exitY=1;exitDx=0;exitDy=0;entryX=0.5;entryY=0;entryDx=0;entryDy=0;" edge="1" parent="1" source="9A3q7rVzD3GhdSEIUEHc-22" target="9A3q7rVzD3GhdSEIUEHc-23">
          <mxGeometry relative="1" as="geometry" />
        </mxCell>
        <mxCell id="9A3q7rVzD3GhdSEIUEHc-32" style="edgeStyle=orthogonalEdgeStyle;rounded=0;orthogonalLoop=1;jettySize=auto;html=1;exitX=1;exitY=0.5;exitDx=0;exitDy=0;entryX=1;entryY=0.5;entryDx=0;entryDy=0;" edge="1" parent="1" source="9A3q7rVzD3GhdSEIUEHc-22" target="9A3q7rVzD3GhdSEIUEHc-26">
          <mxGeometry relative="1" as="geometry">
            <Array as="points">
              <mxPoint x="400" y="640" />
              <mxPoint x="400" y="1050" />
            </Array>
          </mxGeometry>
        </mxCell>
        <mxCell id="9A3q7rVzD3GhdSEIUEHc-33" value="n" style="edgeLabel;html=1;align=center;verticalAlign=middle;resizable=0;points=[];" vertex="1" connectable="0" parent="9A3q7rVzD3GhdSEIUEHc-32">
          <mxGeometry x="-0.9333" y="1" relative="1" as="geometry">
            <mxPoint as="offset" />
          </mxGeometry>
        </mxCell>
        <mxCell id="9A3q7rVzD3GhdSEIUEHc-22" value="j &amp;lt; i?" style="rhombus;whiteSpace=wrap;html=1;" vertex="1" parent="1">
          <mxGeometry x="260" y="600" width="80" height="80" as="geometry" />
        </mxCell>
        <mxCell id="9A3q7rVzD3GhdSEIUEHc-27" style="edgeStyle=orthogonalEdgeStyle;rounded=0;orthogonalLoop=1;jettySize=auto;html=1;exitX=0.5;exitY=1;exitDx=0;exitDy=0;entryX=0.5;entryY=0;entryDx=0;entryDy=0;" edge="1" parent="1" source="9A3q7rVzD3GhdSEIUEHc-23" target="9A3q7rVzD3GhdSEIUEHc-24">
          <mxGeometry relative="1" as="geometry" />
        </mxCell>
        <mxCell id="9A3q7rVzD3GhdSEIUEHc-49" value="y" style="edgeLabel;html=1;align=center;verticalAlign=middle;resizable=0;points=[];" vertex="1" connectable="0" parent="9A3q7rVzD3GhdSEIUEHc-27">
          <mxGeometry x="-0.35" y="4" relative="1" as="geometry">
            <mxPoint x="-4" as="offset" />
          </mxGeometry>
        </mxCell>
        <mxCell id="9A3q7rVzD3GhdSEIUEHc-29" style="edgeStyle=orthogonalEdgeStyle;rounded=0;orthogonalLoop=1;jettySize=auto;html=1;exitX=1;exitY=0.5;exitDx=0;exitDy=0;entryX=1;entryY=0.5;entryDx=0;entryDy=0;" edge="1" parent="1" source="9A3q7rVzD3GhdSEIUEHc-23" target="9A3q7rVzD3GhdSEIUEHc-25">
          <mxGeometry relative="1" as="geometry" />
        </mxCell>
        <mxCell id="9A3q7rVzD3GhdSEIUEHc-50" value="n" style="edgeLabel;html=1;align=center;verticalAlign=middle;resizable=0;points=[];" vertex="1" connectable="0" parent="9A3q7rVzD3GhdSEIUEHc-29">
          <mxGeometry x="-0.936" y="-2" relative="1" as="geometry">
            <mxPoint as="offset" />
          </mxGeometry>
        </mxCell>
        <mxCell id="9A3q7rVzD3GhdSEIUEHc-23" value="&lt;div&gt;arr[i] &amp;gt; arr[j] AND lis[i] &amp;lt; lis[j]+1?&lt;br&gt;&lt;/div&gt;" style="rhombus;whiteSpace=wrap;html=1;" vertex="1" parent="1">
          <mxGeometry x="240" y="700" width="120" height="80" as="geometry" />
        </mxCell>
        <mxCell id="9A3q7rVzD3GhdSEIUEHc-28" style="edgeStyle=orthogonalEdgeStyle;rounded=0;orthogonalLoop=1;jettySize=auto;html=1;exitX=0.5;exitY=1;exitDx=0;exitDy=0;entryX=0.5;entryY=0;entryDx=0;entryDy=0;" edge="1" parent="1" source="9A3q7rVzD3GhdSEIUEHc-24" target="9A3q7rVzD3GhdSEIUEHc-25">
          <mxGeometry relative="1" as="geometry" />
        </mxCell>
        <mxCell id="9A3q7rVzD3GhdSEIUEHc-24" value="lis[i] = lis[j] + 1" style="rounded=0;whiteSpace=wrap;html=1;" vertex="1" parent="1">
          <mxGeometry x="240" y="820" width="120" height="60" as="geometry" />
        </mxCell>
        <mxCell id="9A3q7rVzD3GhdSEIUEHc-31" style="edgeStyle=orthogonalEdgeStyle;rounded=0;orthogonalLoop=1;jettySize=auto;html=1;exitX=0;exitY=0.5;exitDx=0;exitDy=0;entryX=0;entryY=0.5;entryDx=0;entryDy=0;" edge="1" parent="1" source="9A3q7rVzD3GhdSEIUEHc-25" target="9A3q7rVzD3GhdSEIUEHc-22">
          <mxGeometry relative="1" as="geometry" />
        </mxCell>
        <mxCell id="9A3q7rVzD3GhdSEIUEHc-25" value="j++" style="rounded=0;whiteSpace=wrap;html=1;" vertex="1" parent="1">
          <mxGeometry x="240" y="920" width="120" height="60" as="geometry" />
        </mxCell>
        <mxCell id="9A3q7rVzD3GhdSEIUEHc-36" style="edgeStyle=orthogonalEdgeStyle;rounded=0;orthogonalLoop=1;jettySize=auto;html=1;exitX=0;exitY=0.5;exitDx=0;exitDy=0;entryX=0;entryY=0.5;entryDx=0;entryDy=0;" edge="1" parent="1" source="9A3q7rVzD3GhdSEIUEHc-26" target="9A3q7rVzD3GhdSEIUEHc-20">
          <mxGeometry relative="1" as="geometry">
            <Array as="points">
              <mxPoint x="200" y="1050" />
              <mxPoint x="200" y="440" />
            </Array>
          </mxGeometry>
        </mxCell>
        <mxCell id="9A3q7rVzD3GhdSEIUEHc-26" value="i++" style="rounded=0;whiteSpace=wrap;html=1;" vertex="1" parent="1">
          <mxGeometry x="240" y="1020" width="120" height="60" as="geometry" />
        </mxCell>
        <mxCell id="9A3q7rVzD3GhdSEIUEHc-43" style="edgeStyle=orthogonalEdgeStyle;rounded=0;orthogonalLoop=1;jettySize=auto;html=1;exitX=0.5;exitY=1;exitDx=0;exitDy=0;entryX=0.5;entryY=0;entryDx=0;entryDy=0;" edge="1" parent="1" source="9A3q7rVzD3GhdSEIUEHc-37" target="9A3q7rVzD3GhdSEIUEHc-39">
          <mxGeometry relative="1" as="geometry" />
        </mxCell>
        <mxCell id="9A3q7rVzD3GhdSEIUEHc-37" value="max = max(lis)" style="rounded=0;whiteSpace=wrap;html=1;" vertex="1" parent="1">
          <mxGeometry x="440" y="420" width="120" height="60" as="geometry" />
        </mxCell>
        <mxCell id="9A3q7rVzD3GhdSEIUEHc-44" style="edgeStyle=orthogonalEdgeStyle;rounded=0;orthogonalLoop=1;jettySize=auto;html=1;exitX=0.5;exitY=1;exitDx=0;exitDy=0;entryX=0.5;entryY=0;entryDx=0;entryDy=0;" edge="1" parent="1" source="9A3q7rVzD3GhdSEIUEHc-39" target="9A3q7rVzD3GhdSEIUEHc-40">
          <mxGeometry relative="1" as="geometry" />
        </mxCell>
        <mxCell id="9A3q7rVzD3GhdSEIUEHc-39" value="delete[] lis" style="rounded=0;whiteSpace=wrap;html=1;" vertex="1" parent="1">
          <mxGeometry x="440" y="520" width="120" height="60" as="geometry" />
        </mxCell>
        <mxCell id="9A3q7rVzD3GhdSEIUEHc-40" value="return max" style="ellipse;whiteSpace=wrap;html=1;" vertex="1" parent="1">
          <mxGeometry x="440" y="620" width="120" height="80" as="geometry" />
        </mxCell>
      </root>
    </mxGraphModel>
  </diagram>
</mxfile>
